#!OML:ASF H:\Dans Jumps\Project 1\Capture day 1\Session 1\subject.ASF
:FULLY-SPECIFIED
:DEGREES
262
root 0.511426 15.3499 -15.1284 24.9675 0.679927 -1.61036
lowerback 18.9949 -0.268741 -1.79428
upperback -0.0299894 -0.415891 3.03707
thorax -10.6987 -0.000220569 4.49317
lowerneck -22.9259 0.419601 -1.46734
upperneck 19.0607 1.24384 -0.686753
head 9.82563 0.378591 0.182967
rclavicle -1.23246e-014 2.04748e-014
rhumerus -32.5814 -21.3985 -70.4279
rradius 21.917
rwrist 33.5503
rhand -19.4338 -26.3414
rfingers 7.12502
rthumb 6.88638 -56.2094
lclavicle -1.23246e-014 2.04748e-014
lhumerus -26.2722 16.8765 78.4255
lradius 7.99991
lwrist -8.66446
lhand -23.814 -3.44074
lfingers 7.12502
lthumb 2.65695 26.5225
rfemur -62.0748 1.86053 20.1402
rtibia 69.1389
rfoot -32.5326 -16.7178
rtoes 2.57632
lfemur -62.1011 3.2186 -19.6775
ltibia 68.2024
lfoot -27.4697 20.0137
ltoes -8.87196
263
root 0.501595 15.3136 -15.0697 24.9864 0.619743 -1.65941
lowerback 19.108 -0.203034 -1.9105
upperback -0.151423 -0.350786 3.06303
thorax -10.9048 0.0444101 4.57823
lowerneck -23.1744 0.388743 -1.52117
upperneck 18.997 1.20145 -0.592573
head 9.84606 0.366379 0.219206
rclavicle -1.98785e-016 -5.96354e-015
rhumerus -31.7557 -21.3195 -70.8344
rradius 21.9238
rwrist 33.336
rhand -19.4503 -26.2808
rfingers 7.12502
rthumb 6.87043 -56.1493
lclavicle -1.98785e-016 -5.96354e-015
lhumerus -25.1523 17.3089 78.5676
lradius 7.55634
lwrist -9.44712
lhand -24.0031 -3.28563
lfingers 7.12502
lthumb 2.47439 26.6798
rfemur -62.1004 1.99835 20.193
rtibia 69.5623
rfoot -32.431 -16.8697
rtoes 2.54981
lfemur -62.1395 3.41331 -19.6438
ltibia 68.6803
lfoot -27.4947 19.9907
ltoes -9.00067
264
root 0.49261 15.2792 -15.0055 24.9618 0.561677 -1.71689
lowerback 19.1858 -0.146131 -2.00318
upperback -0.265733 -0.292591 3.08615
thorax -11.083 0.0838893 4.64712
lowerneck -23.404 0.361132 -1.57341
upperneck 18.9592 1.16498 -0.505764
head 9.87239 0.355991 0.253478
rclavicle 3.18055e-015 -2.54444e-014
rhumerus -30.8934 -21.1544 -71.3041
rradius 21.9967
rwrist 33.1076
rhand -19.4398 -26.2757
rfingers 7.12502
rthumb 6.88063 -56.1439
lclavicle 3.18055e-015 -2.54444e-014
lhumerus -24.0294 17.744 78.7184
lradius 7.18268
lwrist -10.2072
lhand -24.2171 -3.18198
lfingers 7.12502
lthumb 2.26768 26.7857
rfemur -62.0347 2.08297 20.2795
rtibia 69.9546
rfoot -32.3081 -17.0477
rtoes 2.53056
lfemur -62.0913 3.63518 -19.6111
ltibia 69.1368
lfoot -27.5464 19.962
ltoes -9.14172
265
root 0.48469 15.2473 -14.936 24.8988 0.509079 -1.78171
lowerback 19.2257 -0.0991977 -2.06844
upperback -0.372822 -0.241742 3.10651
thorax -11.2315 0.117596 4.69776
lowerneck -23.6139 0.334952 -1.62591
upperneck 18.9389 1.13204 -0.424995
head 9.9015 0.346432 0.286183
rclavicle 1.13307e-014 6.55989e-015
rhumerus -29.9987 -20.8994 -71.8292
rradius 22.1344
rwrist 32.9366
rhand -19.4468 -26.3503
rfingers 7.12502
rthumb 6.87384 -56.2187
lclavicle 1.13307e-014 6.55989e-015
lhumerus -22.9224 18.1767 78.872
lradius 6.9218
lwrist -10.8553
lhand -24.4146 -3.13406
lfingers 7.12502
lthumb 2.07695 26.8356
rfemur -61.8802 2.11196 20.3959
rtibia 70.3088
rfoot -32.1718 -17.2345
rtoes 2.50546
lfemur -61.9578 3.87691 -19.5775
ltibia 69.561
lfoot -27.6193 19.9266
ltoes -9.29459
266
root 0.477879 15.2186 -14.8613 24.8057 0.462124 -1.84596
lowerback 19.226 -0.0608572 -2.11361
upperback -0.475089 -0.198002 3.12307
thorax -11.3517 0.145979 4.7332
lowerneck -23.8042 0.311317 -1.67256
upperneck 18.9292 1.10351 -0.35692
head 9.93104 0.337795 0.314095
rclavicle -6.95746e-015 2.54444e-014
rhumerus -29.0754 -20.5605 -72.3948
rradius 22.3264
rwrist 32.8644
rhand -19.4801 -26.4902
rfingers 7.12502
rthumb 6.84174 -56.3597
lclavicle -6.95746e-015 2.54444e-014
lhumerus -21.8525 18.5999 79.0233
lradius 6.81423
lwrist -11.322
lhand -24.5719 -3.16497
lfingers 7.12502
lthumb 1.92505 26.8061
rfemur -61.6431 2.0827 20.5307
rtibia 70.616
rfoot -32.0367 -17.4223
rtoes 2.39132
lfemur -61.7427 4.12845 -19.5468
ltibia 69.9388
lfoot -27.7037 19.8875
ltoes -9.51659
267
root 0.472233 15.1939 -14.7814 24.6881 0.414064 -1.90731
lowerback 19.1822 -0.0285 -2.14541
upperback -0.571198 -0.159369 3.13577
thorax -11.4395 0.170164 4.75659
lowerneck -23.9703 0.291861 -1.70726
upperneck 18.9164 1.08057 -0.307364
head 9.95539 0.330484 0.334273
rclavicle -7.15625e-015 6.36111e-015
rhumerus -28.1296 -20.1696 -72.9746
rradius 22.5472
rwrist 32.9571
rhand -19.616 -26.6156
rfingers 7.12502
rthumb 6.71047 -56.4893
lclavicle -7.15625e-015 6.36111e-015
lhumerus -20.8388 19.0133 79.1676
lradius 6.89456
lwrist -11.5596
lhand -24.6786 -3.29874
lfingers 7.12502
lthumb 1.82202 26.6732
rfemur -61.3253 2.00108 20.676
rtibia 70.8651
rfoot -31.9275 -17.5888
rtoes 2.10076
lfemur -61.4445 4.38776 -19.5212
ltibia 70.2549
lfoot -27.7852 19.8795
ltoes -9.92566
268
root 0.467713 15.175 -14.696 24.5432 0.366531 -1.96157
lowerback 19.0967 -0.00243527 -2.16936
upperback -0.657128 -0.127425 3.1456
thorax -11.4913 0.189575 4.77264
lowerneck -24.1092 0.27534 -1.73273
upperneck 18.8948 1.06173 -0.274049
head 9.9719 0.323921 0.347701
rclavicle -1.15295e-014 -2.20651e-014
rhumerus -27.1553 -19.7394 -73.5607
rradius 22.7957
rwrist 33.1385
rhand -19.7977 -26.7227
rfingers 7.12502
rthumb 6.53516 -56.6019
lclavicle -1.15295e-014 -2.20651e-014
lhumerus -19.8968 19.4188 79.3022
lradius 7.18658
lwrist -11.549
lhand -24.7216 -3.53842
lfingers 7.12502
lthumb 1.78041 26.4339
rfemur -60.9103 1.86789 20.826
rtibia 71.0363
rfoot -31.8605 -17.732
rtoes 1.54862
lfemur -61.0457 4.64726 -19.4992
ltibia 70.4887
lfoot -27.8807 19.9002
ltoes -10.553
269
root 0.464288 15.1637 -14.6048 24.3749 0.308715 -2.00401
lowerback 18.9635 0.0208372 -2.19708
upperback -0.733102 -0.100306 3.1509
thorax -11.5041 0.205627 4.78557
lowerneck -24.2211 0.25871 -1.76447
upperneck 18.8702 1.04414 -0.23981
head 9.9825 0.317703 0.362575
rclavicle 7.95139e-016 -1.45113e-014
rhumerus -26.1671 -19.2602 -74.1522
rradius 23.0928
rwrist 33.2759
rhand -19.9893 -26.8102
rfingers 7.12502
rthumb 6.35018 -56.695
lclavicle 7.95139e-016 -1.45113e-014
lhumerus -19.032 19.8187 79.4249
lradius 7.68494
lwrist -11.3178
lhand -24.7175 -3.85959
lfingers 7.12502
lthumb 1.7844 26.1127
rfemur -60.3897 1.69572 20.969
rtibia 71.1073
rfoot -31.8469 -17.8498
rtoes 0.68413
lfemur -60.5346 4.9132 -19.4899
ltibia 70.6165
lfoot -27.9956 19.9521
ltoes -11.3942
270
root 0.461849 15.1624 -14.5073 24.1752 0.239951 -2.03624
lowerback 18.7846 0.0411104 -2.22985
upperback -0.796417 -0.0783658 3.15341
thorax -11.4757 0.218189 4.79816
lowerneck -24.2985 0.244115 -1.79991
upperneck 18.8543 1.03132 -0.210815
head 9.99016 0.312752 0.376846
rclavicle 8.34896e-015 3.57812e-015
rhumerus -25.1841 -18.7422 -74.7378
rradius 23.4414
rwrist 33.3188
rhand -20.1903 -26.8363
rfingers 7.12502
rthumb 6.15612 -56.7268
lclavicle 8.34896e-015 3.57812e-015
lhumerus -18.2511 20.2174 79.535
lradius 8.36575
lwrist -10.9266
lhand -24.6916 -4.28748
lfingers 7.12502
lthumb 1.80944 25.6846
rfemur -59.7334 1.49403 21.1034
rtibia 71.0494
rfoot -31.8902 -17.9436
rtoes -0.445324
lfemur -59.8821 5.18555 -19.4897
ltibia 70.6103
lfoot -28.1366 20.0199
ltoes -12.3681
